<svg width="80" height="80" viewBox="0 0 80 80" fill="none" xmlns="http://www.w3.org/2000/svg">
<path d="M74.9382 28.6156H72.7691V19.3468C72.7691 19.289 72.7588 19.2308 72.7511 19.1717C72.7476 18.804 72.6145 18.4426 72.33 18.1562L54.9124 0.536503C54.907 0.53198 54.9018 0.530375 54.8984 0.52556C54.7946 0.422841 54.6737 0.337339 54.5453 0.26351C54.5076 0.24104 54.4694 0.222218 54.4297 0.202374C54.319 0.149118 54.2011 0.104324 54.0802 0.0720785C54.0473 0.0644913 54.0178 0.0525269 53.9852 0.0449396C53.8535 0.0172171 53.7169 0 53.5787 0H10.7745C8.82 0 7.23209 1.40787 7.23209 3.13731V28.6147H5.06325C2.2672 28.6147 0 30.6218 0 33.0989V56.4168C0 58.8915 2.2672 60.9007 5.06325 60.9007H7.23209V76.8628C7.23209 78.5924 8.82 80 10.7745 80H69.2257C71.1785 80 72.7681 78.5924 72.7681 76.8628V60.9008H74.9372C77.7325 60.9008 80 58.8925 80 56.4169V33.0998C80.0002 30.622 77.7341 28.6156 74.9382 28.6156ZM10.7745 3.13731H51.8074V19.1881C51.8074 20.0548 52.6011 20.7567 53.5787 20.7567H69.2258V28.6155H10.7745V3.13731ZM46.6613 45.9115C43.181 44.8378 40.91 43.1327 40.91 40.4336C40.91 37.2677 43.8937 34.8457 48.8374 34.8457C51.1985 34.8457 52.9403 35.2855 54.1824 35.7814L53.1261 39.1665C52.2874 38.8096 50.7955 38.2857 48.744 38.2857C46.6924 38.2857 45.698 39.1118 45.698 40.0754C45.698 41.2594 46.8794 41.7819 49.5829 42.6902C53.281 43.9019 55.022 45.6083 55.022 48.2232C55.022 51.3343 52.3175 53.977 46.5671 53.977C44.1741 53.977 41.8121 53.4271 40.6308 52.8481L41.5934 49.3799C42.8683 49.9574 44.8271 50.5365 46.8466 50.5365C49.0244 50.5365 50.1727 49.7384 50.1727 48.5268C50.1735 47.3715 49.1791 46.7095 46.6613 45.9115ZM38.6445 50.1777V53.7024H25.5565V35.1466H30.3141V50.1777H38.6445ZM10.3593 53.7024H4.95106L11.0121 44.3128L5.16771 35.1459H10.6081L12.441 38.5324C13.0628 39.6611 13.5294 40.5684 14.0273 41.6161H14.0877C14.5864 40.4321 14.9901 39.6063 15.517 38.5324L17.2891 35.1459H22.6975L16.7913 44.2018L23.0092 53.7008H17.539L15.6419 50.3417C14.866 49.0497 14.3683 48.0853 13.7775 47.0115H13.7157C13.2799 48.0853 12.7527 49.0497 12.0993 50.3417L10.3593 53.7024ZM69.2258 76.0134H10.7745V60.9008H69.2257V76.0134H69.2258ZM69.2578 53.7024L67.3611 50.3433C66.5843 49.0502 66.0871 48.0869 65.4963 47.013H65.436C65 48.0869 64.4708 49.0502 63.8169 50.3433L62.0786 53.7024H56.6687L62.7297 44.3128L56.8857 35.1459H62.3259L64.1611 38.5324C64.7822 39.6611 65.2473 40.5684 65.7457 41.6161H65.8078C66.3042 40.4321 66.7072 39.6063 67.2364 38.5324L69.0079 35.1459H74.4176L68.5113 44.2018L74.728 53.7008H69.2578V53.7024Z" fill="white"/>
</svg>
